<?xml version="1.0" encoding="utf-8"?>
<!-- Generator: Adobe Illustrator 24.2.3, SVG Export Plug-In . SVG Version: 6.00 Build 0)  -->
<svg version="1.1" id="Layer_1" xmlns="http://www.w3.org/2000/svg" xmlns:xlink="http://www.w3.org/1999/xlink" x="0px" y="0px"
	 viewBox="0 0 595.3 841.9" style="enable-background:new 0 0 595.3 841.9;" xml:space="preserve">
<style type="text/css">
	.st0{fill:#FFF685;}
	.st1{opacity:0.81;}
	.st2{fill:#FFFFFF;}
	.st3{fill:#7F3F98;}
	.st4{fill:#00ABE8;}
	.st5{fill:#ED1C24;}
	.st6{fill:#8DC63F;}
	.st7{fill:#39B54A;}
	.st8{fill:#943F62;}
	.st9{fill:#00AC5F;}
	.st10{fill:#FFE050;}
	.st11{fill:#F47B6C;}
	.st12{fill:#97D381;}
	.st13{fill:#F16B94;}
	.st14{fill:#FDCB67;}
	.st15{fill:#810009;}
	.st16{fill:#DA1C5C;}
	.st17{fill:#2B3990;}
	.st18{fill:#A498EE;}
	.st19{fill:#FCBF85;}
	.st20{fill:#18B363;}
	.st21{fill:#E1F8EA;}
	.st22{fill:#F47649;}
	.st23{font-family:'Playbill';}
	.st24{font-size:67.5403px;}
</style>
<g>
	<g>
		
			<image style="overflow:visible;opacity:0.75;enable-background:new    ;" width="579" height="592" xlink:href="24DE65C3.png"  transform="matrix(0.2372 0 0 0.2372 1181.6376 -156.1039)">
		</image>
		<g>
			<g>
				<path class="st0" d="M1302.8-47.9l-79.1,20.3c-5.6,1.4-11.3-1.9-12.7-7.5l-21-81.9c-1.4-5.6,1.9-11.3,7.5-12.7l79.1-20.3
					c5.6-1.4,11.3,1.9,12.7,7.5l21,81.9C1311.8-55,1308.4-49.3,1302.8-47.9z"/>
			</g>
			<g class="st1">
				<path class="st2" d="M1302.8-47.9l-79.1,20.3c-5.6,1.4-11.3-1.9-12.7-7.5l-21-81.9c-1.4-5.6,1.9-11.3,7.5-12.7l79.1-20.3
					c5.6-1.4,11.3,1.9,12.7,7.5l21,81.9C1311.8-55,1308.4-49.3,1302.8-47.9z"/>
			</g>
		</g>
	</g>
	<g>
		
			<image style="overflow:visible;opacity:0.75;enable-background:new    ;" width="583" height="592" xlink:href="24DE65C1.png"  transform="matrix(0.2379 0 0 0.2379 1276.4561 -130.4146)">
		</image>
		<g>
			<g>
				<path class="st3" d="M1371.8-1.4l-78.9-20.9c-5.6-1.5-8.9-7.2-7.4-12.8l21.6-81.7c1.5-5.6,7.2-8.9,12.8-7.4l78.9,20.9
					c5.6,1.5,8.9,7.2,7.4,12.8l-21.6,81.7C1383.1-3.3,1377.3,0.1,1371.8-1.4z"/>
			</g>
			<g class="st1">
				<path class="st2" d="M1371.8-1.4l-78.9-20.9c-5.6-1.5-8.9-7.2-7.4-12.8l21.6-81.7c1.5-5.6,7.2-8.9,12.8-7.4l78.9,20.9
					c5.6,1.5,8.9,7.2,7.4,12.8l-21.6,81.7C1383.1-3.3,1377.3,0.1,1371.8-1.4z"/>
			</g>
		</g>
	</g>
	<g>
		
			<image style="overflow:visible;opacity:0.75;enable-background:new    ;" width="600" height="604" xlink:href="24DE65C7.png"  transform="matrix(0.238 0 0 0.238 1369.576 -169.4199)">
		</image>
		<g>
			<g>
				<path class="st4" d="M1496.8-63.8l-77.3,26.4c-5.5,1.9-11.4-1-13.3-6.5l-27.4-80c-1.9-5.5,1-11.4,6.5-13.3l77.3-26.4
					c5.5-1.9,11.4,1,13.3,6.5l27.4,80C1505.1-71.6,1502.2-65.7,1496.8-63.8z"/>
			</g>
			<g class="st1">
				<path class="st2" d="M1496.8-63.8l-77.3,26.4c-5.5,1.9-11.4-1-13.3-6.5l-27.4-80c-1.9-5.5,1-11.4,6.5-13.3l77.3-26.4
					c5.5-1.9,11.4,1,13.3,6.5l27.4,80C1505.1-71.6,1502.2-65.7,1496.8-63.8z"/>
			</g>
		</g>
	</g>
	<g>
		
			<image style="overflow:visible;opacity:0.75;enable-background:new    ;" width="550" height="558" xlink:href="24DE65C0.png"  transform="matrix(0.2383 0 0 0.2383 1473.7361 -126.3369)">
		</image>
		<g>
			<g>
				<path class="st5" d="M1587.1-16.5l-80.8,11.7c-5.7,0.8-11-3.1-11.8-8.9l-12.1-83.7c-0.8-5.7,3.1-11,8.8-11.8l80.8-11.7
					c5.7-0.8,11,3.1,11.8,8.8l12.1,83.7C1596.8-22.6,1592.8-17.3,1587.1-16.5z"/>
			</g>
			<g class="st1">
				<path class="st2" d="M1587.1-16.5l-80.8,11.7c-5.7,0.8-11-3.1-11.8-8.9l-12.1-83.7c-0.8-5.7,3.1-11,8.8-11.8l80.8-11.7
					c5.7-0.8,11,3.1,11.8,8.8l12.1,83.7C1596.8-22.6,1592.8-17.3,1587.1-16.5z"/>
			</g>
		</g>
	</g>
	<g>
		
			<image style="overflow:visible;opacity:0.75;enable-background:new    ;" width="583" height="592" xlink:href="24DE65CE.png"  transform="matrix(0.2376 0 0 0.2376 1565.525 -144.1039)">
		</image>
		<g>
			<g>
				<path class="st6" d="M1660.9-15.2l-78.9-20.9c-5.6-1.5-8.9-7.2-7.4-12.8l21.6-81.7c1.5-5.6,7.2-8.9,12.8-7.4l78.9,20.9
					c5.6,1.5,8.9,7.2,7.4,12.8l-21.6,81.7C1672.2-17,1666.4-13.7,1660.9-15.2z"/>
			</g>
			<g class="st1">
				<path class="st2" d="M1660.9-15.2l-78.9-20.9c-5.6-1.5-8.9-7.2-7.4-12.8l21.6-81.7c1.5-5.6,7.2-8.9,12.8-7.4l78.9,20.9
					c5.6,1.5,8.9,7.2,7.4,12.8l-21.6,81.7C1672.2-17,1666.4-13.7,1660.9-15.2z"/>
			</g>
		</g>
	</g>
	<g>
		
			<image style="overflow:visible;opacity:0.43;enable-background:new    ;" width="254" height="517" xlink:href="24DE65CF.png"  transform="matrix(0.2353 0 0 0.2353 1222.4561 -137.0026)">
		</image>
		<g>
			<g>
				<text transform="matrix(0.9687 -0.2484 0.2484 0.9687 1250.1472 -48.7339)" class="st7 st23" style="font-size:91.8939px;">I</text>
				
					<rect x="1234" y="-130.3" transform="matrix(0.9687 -0.2484 0.2484 0.9687 69.6523 304.21)" class="st7" width="12.7" height="12.7"/>
			</g>
		</g>
	</g>
	<g>
		
			<image style="overflow:visible;opacity:0.43;enable-background:new    ;" width="371" height="525" xlink:href="24DE65C2.png"  transform="matrix(0.2377 0 0 0.2377 1400.24 -158.5039)">
		</image>
		<g>
			
				<text transform="matrix(1.3795 -0.4766 0.3266 0.9452 1433.6517 -66.904)" class="st23" style="fill:#662D91; font-size:91.8932px;">L</text>
		</g>
	</g>
	<g>
		
			<image style="overflow:visible;opacity:0.43;enable-background:new    ;" width="296" height="508" xlink:href="24DE65C5.png"  transform="matrix(0.2368 0 0 0.2368 1504.2161 -117.1201)">
		</image>
		<g>
			
				<text transform="matrix(1.3363 -0.1931 0.143 0.9897 1523.9117 -30.5943)" class="st23" style="fill:#AFD3F0; font-size:91.89px;">E</text>
		</g>
	</g>
	<g>
		
			<image style="overflow:visible;opacity:0.43;enable-background:new    ;" width="383" height="533" xlink:href="24DE65C6.png"  transform="matrix(0.2373 0 0 0.2373 1588.7334 -136.4239)">
		</image>
		<g>
			
				<text transform="matrix(1.13 0.298 -0.255 0.9669 1603.2339 -56.4631)" class="st23" style="fill:#FBB040; font-size:91.8865px;">M</text>
		</g>
	</g>
	<g>
		
			<image style="overflow:visible;opacity:0.43;enable-background:new    ;" width="313" height="508" xlink:href="5424B530.png"  transform="matrix(0.2339 0 0 0.2339 1306.936 -119.2658)">
		</image>
		<g>
			<g>
				<text transform="matrix(1.1354 0.3115 -0.2646 0.9644 1321.528 -41.0081)" class="st0 st23" style="font-size:91.8937px;">S</text>
				
					<rect x="1328.9" y="-42.7" transform="matrix(0.2646 -0.9644 0.9644 0.2646 1016.0775 1260.8945)" class="st0" width="11.7" height="13.8"/>
			</g>
		</g>
	</g>
	<g>
		
			<image style="overflow:visible;opacity:0.75;enable-background:new    ;" width="583" height="592" xlink:href="5424B537.png"  transform="matrix(0.2371 0 0 0.2371 1126.936 43.8291)">
		</image>
		<g>
			<g>
				<path class="st8" d="M1248.8,152.1l-79.1,20.3c-5.6,1.4-11.3-1.9-12.7-7.5L1136,83c-1.4-5.6,1.9-11.3,7.5-12.7l79.1-20.3
					c5.6-1.4,11.3,1.9,12.7,7.5l21,81.9C1257.7,145,1254.4,150.7,1248.8,152.1z"/>
			</g>
			<g class="st1">
				<path class="st2" d="M1248.8,152.1l-79.1,20.3c-5.6,1.4-11.3-1.9-12.7-7.5L1136,83c-1.4-5.6,1.9-11.3,7.5-12.7l79.1-20.3
					c5.6-1.4,11.3,1.9,12.7,7.5l21,81.9C1257.7,145,1254.4,150.7,1248.8,152.1z"/>
			</g>
		</g>
	</g>
	<g>
		
			<image style="overflow:visible;opacity:0.75;enable-background:new    ;" width="583" height="592" xlink:href="5424B531.png"  transform="matrix(0.2376 0 0 0.2376 1222.5651 69.7361)">
		</image>
		<g>
			<g>
				<path class="st9" d="M1317.7,198.6l-78.9-20.9c-5.6-1.5-8.9-7.2-7.4-12.8l21.6-81.7c1.5-5.6,7.2-8.9,12.8-7.4l78.9,20.9
					c5.6,1.5,8.9,7.2,7.4,12.8l-21.6,81.7C1329,196.7,1323.3,200,1317.7,198.6z"/>
			</g>
			<g class="st1">
				<path class="st2" d="M1317.7,198.6l-78.9-20.9c-5.6-1.5-8.9-7.2-7.4-12.8l21.6-81.7c1.5-5.6,7.2-8.9,12.8-7.4l78.9,20.9
					c5.6,1.5,8.9,7.2,7.4,12.8l-21.6,81.7C1329,196.7,1323.3,200,1317.7,198.6z"/>
			</g>
		</g>
	</g>
	<g>
		
			<image style="overflow:visible;opacity:0.75;enable-background:new    ;" width="600" height="604" xlink:href="5424B533.png"  transform="matrix(0.238 0 0 0.238 1315.576 42.7401)">
		</image>
		<g>
			<g>
				<path class="st10" d="M1442.7,148.3l-77.3,26.4c-5.5,1.9-11.4-1-13.3-6.5l-27.4-80c-1.9-5.5,1-11.4,6.5-13.3l77.3-26.4
					c5.5-1.9,11.4,1,13.3,6.5l27.4,80C1451.1,140.5,1448.2,146.5,1442.7,148.3z"/>
			</g>
			<g class="st1">
				<path class="st2" d="M1442.7,148.3l-77.3,26.4c-5.5,1.9-11.4-1-13.3-6.5l-27.4-80c-1.9-5.5,1-11.4,6.5-13.3l77.3-26.4
					c5.5-1.9,11.4,1,13.3,6.5l27.4,80C1451.1,140.5,1448.2,146.5,1442.7,148.3z"/>
			</g>
		</g>
	</g>
	<g>
		
			<image style="overflow:visible;opacity:0.75;enable-background:new    ;" width="550" height="558" xlink:href="5424B52E.png"  transform="matrix(0.2387 0 0 0.2387 1419.4961 73.4613)">
		</image>
		<g>
			<g>
				<path class="st11" d="M1533.1,183.5l-80.8,11.6c-5.7,0.8-11-3.1-11.8-8.9l-12.1-83.7c-0.8-5.7,3.1-11,8.8-11.8l80.8-11.7
					c5.7-0.8,11,3.1,11.8,8.8l12.1,83.7C1542.7,177.4,1538.8,182.7,1533.1,183.5z"/>
			</g>
			<g class="st1">
				<path class="st2" d="M1533.1,183.5l-80.8,11.6c-5.7,0.8-11-3.1-11.8-8.9l-12.1-83.7c-0.8-5.7,3.1-11,8.8-11.8l80.8-11.7
					c5.7-0.8,11,3.1,11.8,8.8l12.1,83.7C1542.7,177.4,1538.8,182.7,1533.1,183.5z"/>
			</g>
		</g>
	</g>
	<g>
		
			<image style="overflow:visible;opacity:0.43;enable-background:new    ;" width="354" height="525" xlink:href="5424B52F.png"  transform="matrix(0.2373 0 0 0.2373 1152.1416 54.8561)">
		</image>
		<g>
			
				<text transform="matrix(1.3078 -0.3353 0.2484 0.9687 1179.8992 145.6037)" class="st23" style="fill:#FADF00; font-size:91.8939px;">K</text>
		</g>
	</g>
	<g>
		
			<image style="overflow:visible;opacity:0.43;enable-background:new    ;" width="363" height="521" xlink:href="5424B550.png"  transform="matrix(0.238 0 0 0.238 1345.3361 52.4928)">
		</image>
		<g>
			
				<text transform="matrix(1.1045 -0.3816 0.3266 0.9452 1378.9968 143.331)" class="st23" style="fill:#D82E66; font-size:91.8932px;">R</text>
		</g>
	</g>
	<g>
		
			<image style="overflow:visible;opacity:0.43;enable-background:new    ;" width="308" height="513" xlink:href="5424B553.png"  transform="matrix(0.2369 0 0 0.2369 1450.2161 81.9356)">
		</image>
		<g>
			
				<text transform="matrix(1.4445 -0.2087 0.143 0.9897 1469.8583 169.3733)" class="st23" style="fill:#00B290; font-size:91.89px;">E</text>
		</g>
	</g>
	<g>
		<g>
			
				<image style="overflow:visible;opacity:0.75;enable-background:new    ;" width="642" height="646" xlink:href="5424B551.png"  transform="matrix(0.237 0 0 0.237 1506.8561 51.9821)">
			</image>
			<g>
				<g>
					<path class="st12" d="M1645.4,148.9l-69.3,43.2c-4.9,3.1-11.3,1.6-14.4-3.4L1517,117c-3.1-4.9-1.6-11.3,3.3-14.4l69.3-43.2
						c4.9-3,11.3-1.5,14.4,3.3l44.7,71.7C1651.8,139.4,1650.3,145.9,1645.4,148.9z"/>
				</g>
				<g class="st1">
					<path class="st2" d="M1645.4,148.9l-69.3,43.2c-4.9,3.1-11.3,1.6-14.4-3.4L1517,117c-3.1-4.9-1.6-11.3,3.3-14.4l69.3-43.2
						c4.9-3,11.3-1.5,14.4,3.3l44.7,71.7C1651.8,139.4,1650.3,145.9,1645.4,148.9z"/>
				</g>
			</g>
		</g>
		<g>
			
				<image style="overflow:visible;opacity:0.43;enable-background:new    ;" width="433" height="513" xlink:href="5424B557.png"  transform="matrix(0.2367 0 0 0.2367 1533.7361 67.4691)">
			</image>
			<g>
				
					<text transform="matrix(1.24 -0.7734 0.5292 0.8485 1582.8787 158.1776)" class="st23" style="fill:#185AA5; font-size:91.8901px;">S</text>
			</g>
		</g>
	</g>
	<g>
		
			<image style="overflow:visible;opacity:0.43;enable-background:new    ;" width="350" height="521" xlink:href="5424B54B.png"  transform="matrix(0.2352 0 0 0.2352 1252.696 79.9865)">
		</image>
		<g>
			
				<text transform="matrix(1.2686 0.3481 -0.2646 0.9644 1267.4746 158.9582)" class="st23" style="fill:#F2D3D1; font-size:91.8937px;">A</text>
		</g>
	</g>
	<g>
		<g>
			
				<image style="overflow:visible;opacity:0.75;enable-background:new    ;" width="588" height="575" xlink:href="5424B575.png"  transform="matrix(0.2367 0 0 0.2367 1611.9761 50.9949)">
			</image>
			<g>
				<g>
					<path class="st13" d="M1620.9,143.7l18.8-79.5c1.3-5.6,7-9.1,12.6-7.8l82.2,19.5c5.6,1.3,9.1,7,7.8,12.6l-18.8,79.5
						c-1.3,5.6-7,9.1-12.6,7.8l-82.2-19.5C1623,155,1619.6,149.3,1620.9,143.7z"/>
				</g>
				<g class="st1">
					<path class="st2" d="M1620.9,143.7l18.8-79.5c1.3-5.6,7-9.1,12.6-7.8l82.2,19.5c5.6,1.3,9.1,7,7.8,12.6l-18.8,79.5
						c-1.3,5.6-7,9.1-12.6,7.8l-82.2-19.5C1623,155,1619.6,149.3,1620.9,143.7z"/>
				</g>
			</g>
		</g>
		<g>
			
				<image style="overflow:visible;opacity:0.43;enable-background:new    ;" width="246" height="513" xlink:href="5424B577.png"  transform="matrix(0.2361 0 0 0.2361 1648.4561 69.0571)">
			</image>
			<g>
				<g>
					<text transform="matrix(0.973 0.2309 -0.2309 0.973 1662.3175 152.8475)" class="st14 st23" style="font-size:91.89px;">I</text>
					
						<rect x="1682.3" y="75.4" transform="matrix(0.2309 -0.973 0.973 0.2309 1219.2173 1705.9187)" class="st14" width="12.7" height="12.7"/>
				</g>
			</g>
		</g>
	</g>
</g>
<g>
	
		<image style="overflow:visible;opacity:0.75;enable-background:new    ;" width="442" height="450" xlink:href="5424B57A.png"  transform="matrix(0.2379 0 0 0.2379 -790.7137 -746.8501)">
	</image>
	<g>
		<g>
			<path class="st0" d="M-701.9-665.2l-53.3,13.7c-5.6,1.4-11.3-1.9-12.7-7.5l-14.2-55.3c-1.4-5.6,1.9-11.3,7.5-12.7l53.3-13.7
				c5.6-1.4,11.3,1.9,12.7,7.5l14.2,55.3C-693-672.3-696.3-666.6-701.9-665.2z"/>
		</g>
		<g class="st1">
			<path class="st2" d="M-701.9-665.2l-53.3,13.7c-5.6,1.4-11.3-1.9-12.7-7.5l-14.2-55.3c-1.4-5.6,1.9-11.3,7.5-12.7l53.3-13.7
				c5.6-1.4,11.3,1.9,12.7,7.5l14.2,55.3C-693-672.3-696.3-666.6-701.9-665.2z"/>
		</g>
	</g>
</g>
<g>
	
		<image style="overflow:visible;opacity:0.75;enable-background:new    ;" width="446" height="450" xlink:href="5424B57B.png"  transform="matrix(0.2378 0 0 0.2378 -720.5569 -727.5332)">
	</image>
	<g>
		<g>
			<path class="st3" d="M-650.9-632.2l-53.2-14.1c-5.6-1.5-8.9-7.2-7.4-12.8l14.6-55.2c1.5-5.6,7.2-8.9,12.8-7.4l53.2,14.1
				c5.6,1.5,8.9,7.2,7.4,12.8l-14.6,55.2C-639.6-634-645.3-630.7-650.9-632.2z"/>
		</g>
		<g class="st1">
			<path class="st2" d="M-650.9-632.2l-53.2-14.1c-5.6-1.5-8.9-7.2-7.4-12.8l14.6-55.2c1.5-5.6,7.2-8.9,12.8-7.4l53.2,14.1
				c5.6,1.5,8.9,7.2,7.4,12.8l-14.6,55.2C-639.6-634-645.3-630.7-650.9-632.2z"/>
		</g>
	</g>
</g>
<g>
	
		<image style="overflow:visible;opacity:0.75;enable-background:new    ;" width="458" height="458" xlink:href="5424B57D.png"  transform="matrix(0.2374 0 0 0.2374 -651.2651 -756.3301)">
	</image>
	<g>
		<g>
			<path class="st4" d="M-558.4-676.8l-52,17.8c-5.5,1.9-11.4-1-13.3-6.5l-18.5-54c-1.9-5.5,1-11.4,6.5-13.3l52-17.8
				c5.5-1.9,11.4,1,13.3,6.5l18.5,54C-550-684.6-552.9-678.6-558.4-676.8z"/>
		</g>
		<g class="st1">
			<path class="st2" d="M-558.4-676.8l-52,17.8c-5.5,1.9-11.4-1-13.3-6.5l-18.5-54c-1.9-5.5,1-11.4,6.5-13.3l52-17.8
				c5.5-1.9,11.4,1,13.3,6.5l18.5,54C-550-684.6-552.9-678.6-558.4-676.8z"/>
		</g>
	</g>
</g>
<g>
	
		<image style="overflow:visible;opacity:0.75;enable-background:new    ;" width="425" height="433" xlink:href="5424B57F.png"  transform="matrix(0.2367 0 0 0.2367 -574.5895 -725.339)">
	</image>
	<g>
		<g>
			<path class="st5" d="M-491.6-642.2l-54.4,7.8c-5.7,0.8-11-3.1-11.8-8.8l-8.2-56.5c-0.8-5.7,3.1-11,8.8-11.8l54.4-7.8
				c5.7-0.8,11,3.1,11.8,8.8l8.1,56.5C-482-648.3-485.9-643-491.6-642.2z"/>
		</g>
		<g class="st1">
			<path class="st2" d="M-491.6-642.2l-54.4,7.8c-5.7,0.8-11-3.1-11.8-8.8l-8.2-56.5c-0.8-5.7,3.1-11,8.8-11.8l54.4-7.8
				c5.7-0.8,11,3.1,11.8,8.8l8.1,56.5C-482-648.3-485.9-643-491.6-642.2z"/>
		</g>
	</g>
</g>
<g>
	
		<image style="overflow:visible;opacity:0.75;enable-background:new    ;" width="446" height="450" xlink:href="5424B578.png"  transform="matrix(0.2373 0 0 0.2373 -506.5451 -737.6047)">
	</image>
	<g>
		<g>
			<path class="st6" d="M-437-642.4l-53.2-14.1c-5.6-1.5-8.9-7.2-7.4-12.8l14.6-55.2c1.5-5.6,7.2-8.9,12.8-7.4l53.2,14.1
				c5.6,1.5,8.9,7.2,7.4,12.8l-14.6,55.2C-425.7-644.2-431.4-640.9-437-642.4z"/>
		</g>
		<g class="st1">
			<path class="st2" d="M-437-642.4l-53.2-14.1c-5.6-1.5-8.9-7.2-7.4-12.8l14.6-55.2c1.5-5.6,7.2-8.9,12.8-7.4l53.2,14.1
				c5.6,1.5,8.9,7.2,7.4,12.8l-14.6,55.2C-425.7-644.2-431.4-640.9-437-642.4z"/>
		</g>
	</g>
</g>
<g>
	
		<image style="overflow:visible;opacity:0.43;enable-background:new    ;" width="204" height="400" xlink:href="5424B579.png"  transform="matrix(0.2376 0 0 0.2376 -760.7791 -733.5439)">
	</image>
	<g>
		<g>
			<text transform="matrix(0.9687 -0.2484 0.2484 0.9687 -738.2863 -666.5025)" class="st7 st23" style="font-size:68.0028px;">I</text>
			
				<rect x="-750.3" y="-726.8" transform="matrix(0.9687 -0.2484 0.2484 0.9687 155.9963 -207.8293)" class="st7" width="9.4" height="9.4"/>
		</g>
	</g>
</g>
<g>
	
		<image style="overflow:visible;opacity:0.43;enable-background:new    ;" width="296" height="408" xlink:href="5424B576.png"  transform="matrix(0.2368 0 0 0.2368 -629.624 -749.0823)">
	</image>
	<g>
		
			<text transform="matrix(1.3795 -0.4766 0.3266 0.9452 -602.4903 -679.9484)" class="st23" style="fill:#662D91; font-size:68.0024px;">L</text>
	</g>
</g>
<g>
	
		<image style="overflow:visible;opacity:0.43;enable-background:new    ;" width="238" height="400" xlink:href="5424B59A.png"  transform="matrix(0.2358 0 0 0.2358 -552.3241 -719.1439)">
	</image>
	<g>
		<text transform="matrix(1.3363 -0.1931 0.143 0.9897 -535.696 -653.0781)" class="st23" style="fill:#AFD3F0; font-size:68px;">E</text>
	</g>
</g>
<g>
	
		<image style="overflow:visible;opacity:0.43;enable-background:new    ;" width="300" height="413" xlink:href="5424B5A5.png"  transform="matrix(0.2371 0 0 0.2371 -489.6281 -732.8239)">
	</image>
	<g>
		
			<text transform="matrix(1.13 0.298 -0.255 0.9669 -476.9968 -672.2216)" class="st23" style="fill:#FBB040; font-size:67.9973px;">M</text>
	</g>
</g>
<g>
	
		<image style="overflow:visible;opacity:0.43;enable-background:new    ;" width="250" height="400" xlink:href="5424B5A6.png"  transform="matrix(0.2342 0 0 0.2342 -698.504 -720.992)">
	</image>
	<g>
		<g>
			<text transform="matrix(1.1354 0.3115 -0.2646 0.9644 -685.4628 -660.7845)" class="st0 st23" style="font-size:68.0027px;">S</text>
			
				<rect x="-680.1" y="-662" transform="matrix(0.2646 -0.9644 0.9644 0.2646 136.505 -1134.7015)" class="st0" width="8.7" height="10.2"/>
		</g>
	</g>
</g>
<g>
	
		<image style="overflow:visible;opacity:0.75;enable-background:new    ;" width="446" height="450" xlink:href="5424B5A4.png"  transform="matrix(0.2368 0 0 0.2368 -831.0251 -598.6118)">
	</image>
	<g>
		<g>
			<path class="st8" d="M-741.9-517.2l-53.3,13.7c-5.6,1.4-11.3-1.9-12.7-7.5l-14.2-55.3c-1.4-5.6,1.9-11.3,7.5-12.7l53.3-13.7
				c5.6-1.4,11.3,1.9,12.7,7.5l14.2,55.3C-733-524.3-736.3-518.7-741.9-517.2z"/>
		</g>
		<g class="st1">
			<path class="st2" d="M-741.9-517.2l-53.3,13.7c-5.6,1.4-11.3-1.9-12.7-7.5l-14.2-55.3c-1.4-5.6,1.9-11.3,7.5-12.7l53.3-13.7
				c5.6-1.4,11.3,1.9,12.7,7.5l14.2,55.3C-733-524.3-736.3-518.7-741.9-517.2z"/>
		</g>
	</g>
</g>
<g>
	
		<image style="overflow:visible;opacity:0.75;enable-background:new    ;" width="446" height="450" xlink:href="5424B5AA.png"  transform="matrix(0.2373 0 0 0.2373 -760.4651 -579.413)">
	</image>
	<g>
		<g>
			<path class="st9" d="M-690.9-484.2l-53.2-14.1c-5.6-1.5-8.9-7.2-7.4-12.8l14.6-55.2c1.5-5.6,7.2-8.9,12.8-7.4l53.2,14.1
				c5.6,1.5,8.9,7.2,7.4,12.8l-14.6,55.2C-679.6-486-685.3-482.7-690.9-484.2z"/>
		</g>
		<g class="st1">
			<path class="st2" d="M-690.9-484.2l-53.2-14.1c-5.6-1.5-8.9-7.2-7.4-12.8l14.6-55.2c1.5-5.6,7.2-8.9,12.8-7.4l53.2,14.1
				c5.6,1.5,8.9,7.2,7.4,12.8l-14.6,55.2C-679.6-486-685.3-482.7-690.9-484.2z"/>
		</g>
	</g>
</g>
<g>
	
		<image style="overflow:visible;opacity:0.75;enable-background:new    ;" width="458" height="463" xlink:href="5424B5AD.png"  transform="matrix(0.2374 0 0 0.2374 -691.3451 -599.8116)">
	</image>
	<g>
		<g>
			<path class="st10" d="M-598.4-519.8l-52,17.8c-5.5,1.9-11.4-1-13.3-6.5l-18.5-54c-1.9-5.5,1-11.4,6.5-13.3l52-17.8
				c5.5-1.9,11.4,1,13.3,6.5l18.5,54C-590-527.6-592.9-521.7-598.4-519.8z"/>
		</g>
		<g class="st1">
			<path class="st2" d="M-598.4-519.8l-52,17.8c-5.5,1.9-11.4-1-13.3-6.5l-18.5-54c-1.9-5.5,1-11.4,6.5-13.3l52-17.8
				c5.5-1.9,11.4,1,13.3,6.5l18.5,54C-590-527.6-592.9-521.7-598.4-519.8z"/>
		</g>
	</g>
</g>
<g>
	
		<image style="overflow:visible;opacity:0.75;enable-background:new    ;" width="425" height="433" xlink:href="5424B5AE.png"  transform="matrix(0.2367 0 0 0.2367 -614.6784 -577.3782)">
	</image>
	<g>
		<g>
			<path class="st11" d="M-531.6-494.3l-54.4,7.9c-5.7,0.8-11-3.1-11.8-8.9l-8.2-56.5c-0.8-5.7,3.1-11,8.8-11.8l54.4-7.8
				c5.7-0.8,11,3.1,11.8,8.8l8.2,56.5C-522-500.4-525.9-495.1-531.6-494.3z"/>
		</g>
		<g class="st1">
			<path class="st2" d="M-531.6-494.3l-54.4,7.9c-5.7,0.8-11-3.1-11.8-8.9l-8.2-56.5c-0.8-5.7,3.1-11,8.8-11.8l54.4-7.8
				c5.7-0.8,11,3.1,11.8,8.8l8.2,56.5C-522-500.4-525.9-495.1-531.6-494.3z"/>
		</g>
	</g>
</g>
<g>
	
		<image style="overflow:visible;opacity:0.43;enable-background:new    ;" width="279" height="408" xlink:href="5424B5AC.png"  transform="matrix(0.2365 0 0 0.2365 -812.7315 -591.2239)">
	</image>
	<g>
		
			<text transform="matrix(1.3078 -0.3353 0.2484 0.9687 -790.2712 -522.6901)" class="st23" style="fill:#FADF00; font-size:68.0028px;">K</text>
	</g>
</g>
<g>
	
		<image style="overflow:visible;opacity:0.43;enable-background:new    ;" width="292" height="408" xlink:href="5424B5AB.png"  transform="matrix(0.2351 0 0 0.2351 -670.184 -592.9779)">
	</image>
	<g>
		
			<text transform="matrix(1.1045 -0.3816 0.3266 0.9452 -642.9351 -524.3718)" class="st23" style="fill:#D82E66; font-size:68.0024px;">R</text>
	</g>
</g>
<g>
	
		<image style="overflow:visible;opacity:0.43;enable-background:new    ;" width="250" height="400" xlink:href="5424B5A7.png"  transform="matrix(0.2342 0 0 0.2342 -592.424 -570.872)">
	</image>
	<g>
		<text transform="matrix(1.4445 -0.2087 0.143 0.9897 -575.697 -505.1)" class="st23" style="fill:#00B290; font-size:68px;">E</text>
	</g>
</g>
<g>
	<g>
		
			<image style="overflow:visible;opacity:0.75;enable-background:new    ;" width="483" height="488" xlink:href="5424B581.png"  transform="matrix(0.237 0 0 0.237 -549.2725 -592.4183)">
		</image>
		<g>
			<g>
				<path class="st12" d="M-448.1-518.8l-46.7,29.1c-4.9,3-11.3,1.5-14.4-3.4l-30.2-48.5c-3-4.9-1.5-11.3,3.3-14.4l46.7-29.1
					c4.9-3,11.3-1.5,14.4,3.3l30.2,48.5C-441.7-528.3-443.2-521.8-448.1-518.8z"/>
			</g>
			<g class="st1">
				<path class="st2" d="M-448.1-518.8l-46.7,29.1c-4.9,3-11.3,1.5-14.4-3.4l-30.2-48.5c-3-4.9-1.5-11.3,3.3-14.4l46.7-29.1
					c4.9-3,11.3-1.5,14.4,3.3l30.2,48.5C-441.7-528.3-443.2-521.8-448.1-518.8z"/>
			</g>
		</g>
	</g>
	<g>
		
			<image style="overflow:visible;opacity:0.43;enable-background:new    ;" width="338" height="400" xlink:href="5424B583.png"  transform="matrix(0.237 0 0 0.237 -530.597 -582.3439)">
		</image>
		<g>
			<text transform="matrix(1.24 -0.7734 0.5292 0.8485 -492.0596 -513.3857)" class="st23" style="fill:#185AA5; font-size:68px;">S</text>
		</g>
	</g>
</g>
<g>
	
		<image style="overflow:visible;opacity:0.43;enable-background:new    ;" width="275" height="408" xlink:href="5424B580.png"  transform="matrix(0.2359 0 0 0.2359 -738.2578 -573.2239)">
	</image>
	<g>
		
			<text transform="matrix(1.2686 0.3481 -0.2646 0.9644 -725.4621 -512.8054)" class="st23" style="fill:#F2D3D1; font-size:68.0027px;">A</text>
	</g>
</g>
<g>
	<g>
		
			<image style="overflow:visible;opacity:0.75;enable-background:new    ;" width="450" height="438" xlink:href="5424B587.png"  transform="matrix(0.2363 0 0 0.2363 -472.1851 -593.2807)">
		</image>
		<g>
			<g>
				<path class="st13" d="M-463.3-526.7l12.7-53.5c1.3-5.6,7-9.1,12.6-7.8l55.6,13.2c5.6,1.3,9.1,7,7.8,12.6l-12.7,53.5
					c-1.3,5.6-7,9.1-12.6,7.8l-55.6-13.2C-461.2-515.5-464.6-521.1-463.3-526.7z"/>
			</g>
			<g class="st1">
				<path class="st2" d="M-463.3-526.7l12.7-53.5c1.3-5.6,7-9.1,12.6-7.8l55.6,13.2c5.6,1.3,9.1,7,7.8,12.6l-12.7,53.5
					c-1.3,5.6-7,9.1-12.6,7.8l-55.6-13.2C-461.2-515.5-464.6-521.1-463.3-526.7z"/>
			</g>
		</g>
	</g>
	<g>
		
			<image style="overflow:visible;opacity:0.43;enable-background:new    ;" width="200" height="400" xlink:href="5424B582.png"  transform="matrix(0.2376 0 0 0.2376 -445.7839 -581.2639)">
		</image>
		<g>
			<g>
				<text transform="matrix(0.973 0.2309 -0.2309 0.973 -433.2745 -517.3291)" class="st14 st23" style="font-size:68px;">I</text>
				
					<rect x="-418.6" y="-574.7" transform="matrix(0.2309 -0.973 0.973 0.2309 236.2386 -841.0347)" class="st14" width="9.4" height="9.4"/>
			</g>
		</g>
	</g>
</g>
<path class="st15" d="M439.4,475.6H187.7c-25.3,0-45.8-20.5-45.8-45.8l0,0c0-25.3,20.5-45.8,45.8-45.8h251.8
	c25.3,0,45.8,20.5,45.8,45.8l0,0C485.2,455.1,464.7,475.6,439.4,475.6z"/>
<path class="st16" d="M651.1-413.5h-406c-25.3,0-45.8-20.5-45.8-45.8l0,0c0-25.3,20.5-45.8,45.8-45.8h406
	c25.3,0,45.8,20.5,45.8,45.8l0,0C696.9-434,676.4-413.5,651.1-413.5z"/>
<path class="st17" d="M567.3-285.7H315.5c-25.3,0-45.8-20.5-45.8-45.8l0,0c0-25.3,20.5-45.8,45.8-45.8h251.8
	c25.3,0,45.8,20.5,45.8,45.8l0,0C613.1-306.2,592.6-285.7,567.3-285.7z"/>
<path class="st18" d="M568.6-1070.4H316.8c-25.3,0-45.8-20.5-45.8-45.8l0,0c0-25.3,20.5-45.8,45.8-45.8h251.8
	c25.3,0,45.8,20.5,45.8,45.8l0,0C614.4-1090.9,593.9-1070.4,568.6-1070.4z"/>
<path class="st19" d="M560.6-800.6H308.8c-25.3,0-45.8-20.5-45.8-45.8l0,0c0-25.3,20.5-45.8,45.8-45.8h251.8
	c25.3,0,45.8,20.5,45.8,45.8l0,0C606.4-821.1,585.9-800.6,560.6-800.6z"/>
<path class="st20" d="M560.6-938H308.8c-25.3,0-45.8-20.5-45.8-45.8l0,0c0-25.3,20.5-45.8,45.8-45.8h251.8
	c25.3,0,45.8,20.5,45.8,45.8l0,0C606.4-958.5,585.9-938,560.6-938z"/>
<path class="st8" d="M574-671.5H322.2c-25.3,0-45.8-20.5-45.8-45.8l0,0c0-25.3,20.5-45.8,45.8-45.8H574c25.3,0,45.8,20.5,45.8,45.8
	l0,0C619.8-692,599.3-671.5,574-671.5z"/>
<g>
	<text transform="matrix(1.6661 0 0 1 311.1885 -547.1729)" class="st16 st23" style="font-size:75.4277px;">Devam</text>
	<g>
		<text transform="matrix(1.6661 0 0 1 511.0957 -547.1729)" class="st16 st23" style="font-size:75.4277px;">Et</text>
	</g>
</g>
<text transform="matrix(1.6661 0 0 1 363.9053 -1094.2217)" class="st23" style="fill:#F4E192; font-size:75.4277px;">Kolay</text>
<text transform="matrix(1.6661 0 0 1 380.1968 -821.0645)" class="st23" style="fill:#D24B4C; font-size:86.7731px;">Zor</text>
<text transform="matrix(1.6661 0 0 1 341.4644 -691.9932)" class="st20 st23" style="font-size:86.7731px;">Uzman</text>
<text transform="matrix(1.6661 0 0 1 362.4233 -959.1909)" class="st23" style="fill:#F8CEC6; font-size:86.7731px;">Orta</text>
<g>
	<path class="st21" d="M383.2-361v-3.4h13.2v23.9h-13.2v-1.1c0-4.9-1.8-7.3-5.3-7.3c-2.4,0-3.9,0.8-4.4,2.4
		c-0.5,1.6-0.8,6.1-0.8,13.6c0,8.2,1.8,12.3,5.3,12.3c3.2,0,4.9-2.3,4.9-6.8v-2.6v-2.1h14.5c0.5,3.2,0.8,6.4,0.8,9.6
		c0,12.5-6.7,18.8-20.1,18.8c-9.1,0-14.9-1.8-17.4-5.4c-2.5-3.6-3.7-11.9-3.7-24.9c0-12.6,1-20.9,3.2-25.1c2.1-4.1,6.4-6.2,12.7-6.2
		C377.5-365.4,381-363.9,383.2-361z"/>
	<path class="st21" d="M466.7-349.2v11.9h-4.3l-8.1,6.3l9,13.6h3.5v12.5h-18.7v-12.5h4.4l-5.6-8.7l-5.4,3.1v5.6h3.5v12.5h-18.7
		v-12.5h4.2v-37.1h-4.2v-10h15.2v34.9l11-7.7h-4.4v-11.9L466.7-349.2L466.7-349.2z"/>
	<path class="st21" d="M524-349.2v17.2h-9v-1.2c0-3.1-1.9-4.6-5.8-4.6c-3,0-4.5,0.9-4.5,2.6c0,1.4,1.3,2.6,4,3.5l5.8,1.9
		c7.6,2.5,11.3,6.4,11.3,11.8c0,9.3-3.7,13.9-11,13.9c-4.9,0-8.3-1.6-10.3-4.7v4.1h-9V-323h9v0.9c0,4,1.8,5.9,5.3,5.9
		c3.1,0,4.7-1,4.7-3.1c0-2.2-1.8-4-5.4-5.2l-3.8-1.3c-7.3-2.5-10.9-6.5-10.9-12c0-8,3.5-12,10.6-12c4.5,0,7.8,1.6,10,4.9v-4.3
		L524-349.2L524-349.2z"/>
	<polygon class="st21" points="418,-349.2 402.8,-349.2 402.8,-337.3 406.9,-337.3 406.9,-317.3 402.8,-317.3 402.8,-304.8 
		422.5,-304.8 422.5,-317.3 418,-317.3 	"/>
	<polygon class="st21" points="486.3,-349.2 471,-349.2 471,-337.3 475.2,-337.3 475.2,-317.3 471,-317.3 471,-304.8 490.8,-304.8 
		490.8,-317.3 486.3,-317.3 	"/>
	<rect x="372.3" y="-308" class="st21" width="10.4" height="10.4"/>
	<rect x="502.6" y="-308" class="st21" width="10.4" height="10.4"/>
</g>
<g>
	<text transform="matrix(1.6661 0 0 1 488.7881 -433.9819)" class="st23" style="fill:#ECF8C7; font-size:86.7731px;">Oyna</text>
	<g>
		<text transform="matrix(1.6661 0 0 1 249.7661 -433.9819)" class="st23" style="fill:#ECF8C7; font-size:86.7731px;">Tekrar</text>
	</g>
</g>
<text transform="matrix(1.2894 0 0 1 182 450.1152)" class="st22 st23 st24">Skor Tablosu</text>
<text transform="matrix(1 0 0 1 710 -618)" class="st23" style="font-size:60px;">Lorem ipsum</text>
</svg>
